# xmcd
#
# Track frame offsets:
#	150
#	18582
#	37660
#	66155
#	85120
#	105505
#	124750
#	144592
#	167442
#	186132
#	207717
#	223472
#	241870
#	262937
#
# Disc length: 4391 seconds
#
# Revision: 0
# Processed by: cddbd v1.4PL0 Copyright (c) Steve Scherf et al.
# Submitted via: EasyCDDAExtractor 4.6.9.1
#
DISCID=c211250e
DTITLE=N.W.A. - The N.W.A. Legacy (Edited)
DYEAR=1999
DGENRE=Rap
TTITLE0=Straight Outta Compton (N.W.A.)
TTITLE1=Alwayz Into Somethin' (N.W.A.)
TTITLE2=Boyz-N-Tha Hood (Remix) (Eazy-E and Dr. Dre)
TTITLE3=Steady Mobbin' (Ice Cube)
TTITLE4=It Was a Good Day (Remix) (Ice Cube)
TTITLE5=Natural Born Killaz (Dr. Dre and Ice Cube)
TTITLE6=Let Me Ride
TTITLE7=Keep Their Heads Ringin'
TTITLE8=Final Frontier
TTITLE9=California Love (Dr. Dre and 2Pac)
TTITLE10=Bow Down
TTITLE11=Nothin' but the Cavi Hit
TTITLE12=Only in California
TTITLE13=Megamix - Dope Man, 8-Ball, Radio, Gangsta Gangsta, and Express Yoursel
TTITLE13=f
EXTD=
EXTT0=
EXTT1=
EXTT2=
EXTT3=
EXTT4=
EXTT5=
EXTT6=
EXTT7=
EXTT8=
EXTT9=
EXTT10=
EXTT11=
EXTT12=
EXTT13=
PLAYORDER=
